<?xml version="1.0" encoding="UTF-8" standalone="no"?>
<!-- Created with Inkscape (http://www.inkscape.org/) -->

<svg
   xmlns:dc="http://purl.org/dc/elements/1.1/"
   xmlns:cc="http://creativecommons.org/ns#"
   xmlns:rdf="http://www.w3.org/1999/02/22-rdf-syntax-ns#"
   xmlns:svg="http://www.w3.org/2000/svg"
   xmlns="http://www.w3.org/2000/svg"
   xmlns:xlink="http://www.w3.org/1999/xlink"
   xmlns:sodipodi="http://sodipodi.sourceforge.net/DTD/sodipodi-0.dtd"
   xmlns:inkscape="http://www.inkscape.org/namespaces/inkscape"
   width="114.05568mm"
   height="53.708572mm"
   viewBox="0 0 404.1343 190.30596"
   id="svg2"
   version="1.1"
   inkscape:version="0.91 r13725"
   sodipodi:docname="MULTIPLE.svg">
  <defs
     id="defs4">
    <linearGradient
       id="linearGradient-1"
       y2="181.92058"
       x2="257.21964"
       y1="18.935974"
       x1="104.44516"
       gradientTransform="scale(1.0064904,0.99355149)"
       gradientUnits="userSpaceOnUse">
      <stop
         id="stop4141"
         offset="0%"
         stop-color="#F9A03C" />
      <stop
         id="stop4143"
         offset="100%"
         stop-color="#F7974E" />
    </linearGradient>
    <linearGradient
       id="linearGradient-2"
       y2="188.40465"
       x2="122.23597"
       y1="48.226913"
       x1="-21.491283"
       gradientTransform="scale(0.99750234,1.0025039)"
       gradientUnits="userSpaceOnUse">
      <stop
         id="stop4146"
         offset="0%"
         stop-color="#F9A03C" />
      <stop
         id="stop4148"
         offset="100%"
         stop-color="#F7974E" />
    </linearGradient>
    <linearGradient
       id="linearGradient-3"
       y2="246.03192"
       x2="172.57632"
       y1="98.811852"
       x1="44.167824"
       gradientTransform="scale(1.0137653,0.98642161)"
       gradientUnits="userSpaceOnUse">
      <stop
         id="stop4151"
         offset="0%"
         stop-color="#F9A03C" />
      <stop
         id="stop4153"
         offset="100%"
         stop-color="#F7974E" />
    </linearGradient>
    <linearGradient
       id="linearGradient-4"
       y2="229.18869"
       x2="205.2748"
       y1="-4.5329199"
       x1="28.214054"
       gradientTransform="scale(1.0281528,0.97261808)"
       gradientUnits="userSpaceOnUse">
      <stop
         id="stop4156"
         offset="0%"
         stop-color="#F26D58" />
      <stop
         id="stop4158"
         offset="100%"
         stop-color="#F9A03C" />
    </linearGradient>
    <linearGradient
       id="linearGradient-5"
       y2="121.3268"
       x2="300.62946"
       y1="6.4669924"
       x1="125.82687"
       gradientTransform="scale(0.95887522,1.0428886)"
       gradientUnits="userSpaceOnUse">
      <stop
         id="stop4161"
         offset="0%"
         stop-color="#B84E51" />
      <stop
         id="stop4163"
         offset="100%"
         stop-color="#F68E48" />
    </linearGradient>
    <linearGradient
       id="linearGradient-6"
       y2="395.51135"
       x2="66.386719"
       y1="236.93777"
       x1="60.120747"
       gradientTransform="scale(1.3814153,0.72389527)"
       gradientUnits="userSpaceOnUse">
      <stop
         id="stop4166"
         offset="0%"
         stop-color="#F9A03C" />
      <stop
         id="stop4168"
         offset="100%"
         stop-color="#F7974E" />
    </linearGradient>
    <linearGradient
       id="linearGradient2795">
      <stop
         id="stop2797"
         offset="0"
         style="stop-color:#b8b8b8;stop-opacity:0.49803922;" />
      <stop
         id="stop2799"
         offset="1"
         style="stop-color:#7f7f7f;stop-opacity:0;" />
    </linearGradient>
    <linearGradient
       id="linearGradient2787">
      <stop
         id="stop2789"
         offset="0"
         style="stop-color:#7f7f7f;stop-opacity:0.5;" />
      <stop
         id="stop2791"
         offset="1"
         style="stop-color:#7f7f7f;stop-opacity:0;" />
    </linearGradient>
    <linearGradient
       id="linearGradient3676">
      <stop
         id="stop3678"
         offset="0"
         style="stop-color:#b2b2b2;stop-opacity:0.5;" />
      <stop
         id="stop3680"
         offset="1"
         style="stop-color:#b3b3b3;stop-opacity:0;" />
    </linearGradient>
    <linearGradient
       id="linearGradient3236">
      <stop
         id="stop3244"
         offset="0"
         style="stop-color:#f4f4f4;stop-opacity:1" />
      <stop
         id="stop3240"
         offset="1"
         style="stop-color:white;stop-opacity:1" />
    </linearGradient>
    <linearGradient
       id="linearGradient4671">
      <stop
         id="stop4673"
         offset="0"
         style="stop-color:#ffd43b;stop-opacity:1;" />
      <stop
         id="stop4675"
         offset="1"
         style="stop-color:#ffe873;stop-opacity:1" />
    </linearGradient>
    <linearGradient
       id="linearGradient4689">
      <stop
         id="stop4691"
         offset="0"
         style="stop-color:#5a9fd4;stop-opacity:1;" />
      <stop
         id="stop4693"
         offset="1"
         style="stop-color:#306998;stop-opacity:1;" />
    </linearGradient>
    <linearGradient
       gradientTransform="translate(100.2702,99.61116)"
       gradientUnits="userSpaceOnUse"
       xlink:href="#linearGradient4671"
       id="linearGradient2987"
       y2="144.75717"
       x2="-65.308502"
       y1="144.75717"
       x1="224.23996" />
    <linearGradient
       gradientTransform="translate(100.2702,99.61116)"
       gradientUnits="userSpaceOnUse"
       xlink:href="#linearGradient4689"
       id="linearGradient2990"
       y2="76.313133"
       x2="26.670298"
       y1="77.475983"
       x1="172.94208" />
    <linearGradient
       y2="144.75717"
       x2="-65.308502"
       y1="144.75717"
       x1="224.23996"
       gradientTransform="matrix(0.562541,0,0,0.567972,-11.5974,-7.60954)"
       gradientUnits="userSpaceOnUse"
       id="linearGradient2255"
       xlink:href="#linearGradient4671"
       inkscape:collect="always" />
    <linearGradient
       y2="76.313133"
       x2="26.670298"
       y1="76.176224"
       x1="172.94208"
       gradientTransform="matrix(0.562541,0,0,0.567972,-11.5974,-7.60954)"
       gradientUnits="userSpaceOnUse"
       id="linearGradient2258"
       xlink:href="#linearGradient4689"
       inkscape:collect="always" />
    <radialGradient
       gradientUnits="userSpaceOnUse"
       gradientTransform="matrix(1,0,0,0.177966,0,108.7434)"
       r="29.036913"
       fy="132.28575"
       fx="61.518883"
       cy="132.28575"
       cx="61.518883"
       id="radialGradient2801"
       xlink:href="#linearGradient2795"
       inkscape:collect="always" />
    <linearGradient
       y2="137.27299"
       x2="112.03144"
       y1="192.35176"
       x1="150.96111"
       gradientTransform="matrix(0.562541,0,0,0.567972,-9.399749,-5.305317)"
       gradientUnits="userSpaceOnUse"
       id="linearGradient1475"
       xlink:href="#linearGradient4671"
       inkscape:collect="always" />
    <linearGradient
       y2="114.39767"
       x2="135.66525"
       y1="20.603781"
       x1="26.648937"
       gradientTransform="matrix(0.562541,0,0,0.567972,-9.399749,-5.305317)"
       gradientUnits="userSpaceOnUse"
       id="linearGradient1478"
       xlink:href="#linearGradient4689"
       inkscape:collect="always" />
    <radialGradient
       r="29.036913"
       fy="132.28575"
       fx="61.518883"
       cy="132.28575"
       cx="61.518883"
       gradientTransform="matrix(2.382716e-8,-0.296405,1.43676,4.683673e-7,-128.544,150.5202)"
       gradientUnits="userSpaceOnUse"
       id="radialGradient1480"
       xlink:href="#linearGradient2795"
       inkscape:collect="always" />
  </defs>
  <sodipodi:namedview
     id="base"
     pagecolor="#ffffff"
     bordercolor="#666666"
     borderopacity="1.0"
     inkscape:pageopacity="0.0"
     inkscape:pageshadow="2"
     inkscape:zoom="0.7"
     inkscape:cx="-37.571486"
     inkscape:cy="-221.56124"
     inkscape:document-units="px"
     inkscape:current-layer="layer1"
     showgrid="false"
     fit-margin-top="0"
     fit-margin-left="0"
     fit-margin-right="0"
     fit-margin-bottom="0"
     inkscape:window-width="2288"
     inkscape:window-height="1322"
     inkscape:window-x="0"
     inkscape:window-y="24"
     inkscape:window-maximized="1" />
  <metadata
     id="metadata7">
    <rdf:RDF>
      <cc:Work
         rdf:about="">
        <dc:format>image/svg+xml</dc:format>
        <dc:type
           rdf:resource="http://purl.org/dc/dcmitype/StillImage" />
        <dc:title></dc:title>
      </cc:Work>
    </rdf:RDF>
  </metadata>
  <g
     inkscape:label="Calque 1"
     inkscape:groupmode="layer"
     id="layer1"
     transform="translate(-20.967177,-17.762267)">
    <g
       id="g4170"
       transform="matrix(0.34226321,0,0,0.34226321,337.5104,74.686953)">
      <path
         id="path4172"
         d="m 255.52,175.61867 c 0.11467,-1.11467 0.19733,-2.24 0.26133,-3.37067 0.0773,-1.33867 -80.56266,-77.850667 -80.56266,-77.850667 l -1.928,0 c 0,0 81.736,86.215997 82.22933,81.221337 l 0,0 0,0 z"
         inkscape:connector-curvature="0"
         style="fill:url(#linearGradient-1)" />
      <path
         id="path4174"
         d="m 83.472,149.07733 c -0.106667,0.23467 -0.213333,0.46934 -0.322667,0.704 -0.114666,0.24534 -0.232,0.49067 -0.349333,0.73334 -2.570667,5.36 35.98667,43.05333 39.088,38.47466 0.14133,-0.20266 0.28267,-0.416 0.424,-0.61866 0.15733,-0.24 0.312,-0.46934 0.46667,-0.70934 2.48,-3.76533 -38.205337,-41.032 -39.30667,-38.584 l 0,0 0,0 z"
         inkscape:connector-curvature="0"
         style="fill:url(#linearGradient-2)" />
      <path
         id="path4176"
         d="m 137.95733,202.08267 c -0.10933,0.24 -0.88533,1.552 -1.59466,2.24533 -0.12,0.24 37.64,37.688 37.64,37.688 l 3.4,0 c 0.003,0 -35.44534,-38.34933 -39.44534,-39.93333 l 0,0 0,0 z"
         inkscape:connector-curvature="0"
         style="fill:url(#linearGradient-3)" />
      <path
         id="path4178"
         d="m 255.83467,171.568 c -1.76534,39.14667 -34.152,70.448 -73.72,70.448 l -5.34934,0 -39.51466,-38.928 c 3.25066,-4.584 6.272,-9.33333 8.96266,-14.28533 l 35.90134,0 c 11.35466,0 20.59466,-9.23467 20.59466,-20.59467 0,-11.35467 -9.24,-20.59467 -20.59466,-20.59467 l -21.24534,0 c 1.61867,-8.55733 2.504,-17.38133 2.504,-26.408 0,-9.16533 -0.90133,-18.11466 -2.57866,-26.807997 l 13.19733,0 81.61067,80.413337 c 0.096,-1.07734 0.17333,-2.15467 0.232,-3.24267 l 0,0 0,0 z M 21.466667,0 0,0 l 0,53.213333 21.466667,0 c 37.493333,0 68,30.498667 68,67.991997 0,10.2 -2.274667,19.88267 -6.317334,28.576 L 122.312,188.37067 c 12.85867,-19.24 20.376,-42.33867 20.376,-67.16534 C 142.688,54.373333 88.306667,0 21.466667,0 l 0,0 0,0 z"
         inkscape:connector-curvature="0"
         style="fill:url(#linearGradient-4)" />
      <path
         id="path4180"
         d="M 182.11467,0 95.186667,0 C 116.41867,12.962667 134,31.344 145.97867,53.213333 l 36.136,0 c 11.35466,0 20.59466,9.234667 20.59466,20.594667 0,11.357333 -9.24,20.592 -20.59466,20.592 l -8.12,0 81.61066,80.41333 c 0.192,-2.18133 0.312,-4.376 0.312,-6.60533 0,-17.93867 -6.43733,-34.39467 -17.12533,-47.20267 C 249.48,108.20267 255.91733,91.744 255.91733,73.808 255.91733,33.112 222.81333,0 182.11467,0 l 0,0 0,0 z"
         inkscape:connector-curvature="0"
         style="fill:url(#linearGradient-5)" />
      <path
         id="path4182"
         d="m 176.76533,242.016 -80.95733,0 c 16.296,-10.064 30.384,-23.34933 41.44267,-38.928 l 39.51466,38.928 0,0 z M 122.312,188.37067 83.152,149.78133 C 72.333333,173.032 48.757333,189.20267 21.466667,189.20267 l -21.466667,0 0,53.208 21.466667,0 c 42.010666,0 79.090663,-21.488 100.845333,-54.04 l 0,0 0,0 z"
         inkscape:connector-curvature="0"
         style="fill:url(#linearGradient-6)" />
    </g>
    <g
       style="overflow:visible"
       id="g4294"
       transform="matrix(0.13647196,0,0,0.13647196,198.00358,17.762267)">
      <g
         id="Layer_5" />
      <g
         id="Layer_6">
        <ellipse
           id="ellipse4217"
           ry="225.439"
           rx="224.981"
           cy="406.61801"
           cx="346.517"
           style="fill:#71c9f1" />
        <path
           id="path4219"
           d="m 501.978,457.39 c -7.509,-0.713 -16.236,0.223 -23.391,-2.537 -8.306,-3.204 -4.547,-10.3 -9.413,-16.078 -3.78,-4.487 -11.079,-5.93 -16.188,-8.536 -6.96,-3.549 -13.698,-7.636 -21.302,-9.71 -7.862,-2.143 -17.271,0.333 -24.15,4.177 -2.157,1.205 -7.1,5.316 -9.661,3.283 -2.681,-2.127 2.007,-10.977 -4.186,-8.791 -5.667,2 -8.333,10.666 -13,10 -5.563,-0.797 -10.045,-2.484 -15.7,-2.025 -4.935,0.4 -9.862,1.645 -13.318,-2.984 -3.655,-4.897 -0.294,-11.042 -2.59,-16.06 -3.943,-8.621 -14.11,-0.312 -20.288,-4.171 4.428,-3.34 8.556,-9.208 8.812,-14.902 0.24,-5.296 -3.365,-9.285 -8.459,-5.876 -2.794,1.87 -2.717,5.298 -4.786,7.61 -3.579,3.998 -22.032,5.008 -23.392,-2.131 -1.274,-6.693 -3.8,-19.088 -0.613,-25.461 2.46,-4.92 5.587,-10.722 11.14,-12.62 5.662,-1.937 13.416,0.266 19.726,-1.347 5.419,-1.385 11.471,-3.187 16.794,-0.577 5.431,2.663 6.361,8.669 8.675,13.876 1.333,3 6.333,7 4.998,-1.009 -1.043,-6.257 -6.906,-13.907 -3.835,-20.018 2.753,-5.469 9.375,-7.259 12.905,-11.957 3.462,-4.605 0.965,-10.548 3.581,-15.406 2.607,-4.842 8.754,-6.369 11.152,-11.427 1.169,-2.466 6.492,-16.992 11.812,-12.393 2.256,1.95 0.915,4.433 4.449,1.971 1.443,-1.005 6.797,-4.77 3.601,-6.54 -2.938,-1.626 -8,0.977 -9.614,-3.112 -2.782,-7.047 10.244,-10.657 11.95,-15.776 1,-3 0.999,-4 -6.667,-7 -5.263,-2.06 -10.834,-13.366 -16.136,-13.021 -2.959,0.193 -2.355,3.443 -4.236,3.981 -4.458,1.275 -6.904,-5.511 -9.975,-7.852 -2.22,-1.691 -10.525,-5.292 -13.255,-3.211 -6.569,5.007 11.048,30.222 -1.377,34.982 -3.051,1.169 -9.481,-11.799 -13.748,-13.541 -6.876,-2.808 -18.555,-1.837 -18.288,-12.673 0.259,-10.54 13.503,-7.468 16.641,-14.656 2.782,-6.372 -7.008,-16.185 -12.755,-14.704 -0.313,1.593 0.765,5.348 -0.234,6.547 -3.135,3.749 -22.685,0.086 -26.976,-1.256 -7.398,-2.314 -15.241,-3.933 -22.041,-7.793 -5.896,-3.347 -9.099,-9.623 -16.62,-6.803 -5.333,2 -8.581,4.748 -13.247,6.749 -4.513,1.935 -9.57,2.161 -14.054,4.299 -4.543,2.167 -1.849,10.273 -5.445,14.193 -4.375,4.767 -11.717,4.507 -17.641,5.074 -1.479,0.142 -11.102,0.365 -11.364,1.94 -0.377,2.465 24.337,-0.224 26.059,-0.717 3.962,-1.134 6.864,-4.043 10.679,-5.509 4.563,-1.753 10.064,-2.544 12.391,2.452 2.72,5.866 0.49,11.602 -1.584,17.235 -2.341,6.359 -1.505,7.897 0.193,14.208 1.063,3.951 0.289,6.358 -1.373,10.062 -4.133,9.214 -15.476,25.558 -11.28,36.347 3.218,8.275 10.404,15.299 16.03,21.95 3.825,4.522 3.212,8.959 5.922,14.176 2.562,4.931 6.369,9.652 9.468,14.285 4.448,6.649 5.391,15.301 10.732,21.386 4.689,5.344 18.895,14.808 26.259,15.046 2.229,0.071 4.227,-2.034 6.38,-1.789 6.695,0.77 10.746,7.212 16.557,9.839 5.312,2.401 12.593,0.383 17.068,4.591 5.602,5.266 6.109,13.242 14.608,15.555 4.236,1.151 9.679,-0.793 13.622,1.16 11.421,5.661 3.7,18.943 0.003,26.387 -3.837,7.723 -7.906,16.742 -6.265,25.596 1.417,7.646 7.29,12.614 11.329,18.841 3.502,5.398 4.498,12.508 10.363,16.07 4.594,2.789 13.605,2.979 16.249,8.182 2.943,5.793 -3.647,14.68 -5.068,20.259 -1.802,7.076 -3.995,14.092 -6.196,21.056 -2.197,6.953 -5.879,11.785 -8.91,18.124 -2.504,5.236 -9.558,25.709 1.111,24.759 15.161,-1.355 20.782,-21.278 33.737,-26.138 2.666,-1 25,-17.666 29,-21 4,-3.332 14,-7.332 15.333,-11.332 1.333,-4 6.333,-7 8,-14.001 1.917,-8.052 14.624,-10.232 20.124,-15.672 7.525,-7.445 11.274,-18.378 15.207,-27.991 3.35,-8.187 10.577,-14.424 12.632,-23.294 2.588,-11.177 -6.133,-13.849 -16.671,-14.851 z"
           inkscape:connector-curvature="0"
           style="fill:#359946" />
        <path
           id="path4221"
           d="m 381.378,381.335 c -1.71,-0.46 -3.672,-0.411 -5.432,-0.978 -2.658,-0.856 -4.965,-2.606 -7.574,-3.604 -2.751,-1.053 -5.575,-1.834 -8.521,-2.048 -1.604,-0.117 -3.228,-0.049 -4.813,0.229 -1.477,0.259 -3.017,0.697 -4.387,1.315 -0.578,0.261 -1.629,0.807 -1.259,1.641 0.655,1.472 4.881,0.516 6.075,0.517 4.407,0.004 9.582,-0.109 13.225,2.781 0.947,0.752 1.812,1.611 2.563,2.56 0.613,0.771 1.158,1.651 2.077,2.095 0.902,0.436 1.856,-0.061 2.698,-0.418 1.194,-0.506 2.403,-0.981 3.641,-1.37 1.015,-0.318 2.294,-0.438 3.014,-1.312 0.6,-0.728 -0.414,-1.167 -1.307,-1.408 z"
           inkscape:connector-curvature="0"
           style="fill:#359946" />
        <path
           id="path4223"
           d="m 401.687,385.114 c -2.328,-0.596 -4.999,2.082 -8.334,0.75 -3.021,-1.209 -3.718,-2.699 -5.646,-3.062 -1.204,-0.227 -3.259,0.418 -1.688,1.812 2.719,2.412 4.67,4.588 8,6.084 2.071,0.93 7.254,0.213 9.25,-0.918 3.418,-1.934 2.001,-3.75 -1.582,-4.666 z"
           inkscape:connector-curvature="0"
           style="fill:#359946" />
        <path
           id="path4225"
           d="m 417.418,273.486 c -0.908,-0.569 -4.107,-7.395 -6.731,-1.956 -3.417,7.083 9.064,8.755 10.345,7.231 1.281,-1.524 -3.261,-5.054 -3.614,-5.275 z"
           inkscape:connector-curvature="0"
           style="fill:#359946" />
        <path
           id="path4227"
           d="m 360.747,219.091 c -1.993,-0.813 -19.86,-8.049 -20.452,-2.425 -0.387,3.669 6.869,4.285 9.104,4.869 3.51,0.918 9.196,3.659 10.155,7.568 0.661,2.702 -3.062,6.094 2.133,6.094 2.333,0 7.333,1.333 7.333,1.333 0,0 2.331,1.332 4.33,1 5.634,-0.933 -3.676,-9.816 -5.043,-11.32 -2.56,-2.815 -3.88,-5.617 -7.56,-7.119 z"
           inkscape:connector-curvature="0"
           style="fill:#359946" />
        <path
           id="path4229"
           d="m 309.146,212.979 c -1.678,-0.62 -5.983,-1.21 -6.354,-1.005 -3.8,2.109 -3.879,3.164 0.234,5.171 3.782,1.846 7.568,3.359 11.677,4.333 2.281,0.541 6.878,0.554 4.704,-3.035 -1.836,-3.028 -7.161,-4.319 -10.261,-5.464 z"
           inkscape:connector-curvature="0"
           style="fill:#359946" />
        <path
           id="path4231"
           d="m 348.823,199.695 c -1.944,-1.491 -4.894,0.116 -6.754,0.966 -4.292,1.959 -8.718,0.723 -13.063,2.073 -1.127,0.35 -2.913,1.235 -3.002,2.619 -0.118,1.815 2.478,2.298 3.74,2.786 1.955,0.756 3.552,2.407 5.803,1.95 1.804,-0.366 3.223,-1.749 5.056,-2.105 2.112,-0.41 4.178,-0.647 5.794,-2.204 1.193,-1.149 4.435,-4.535 2.426,-6.085 z"
           inkscape:connector-curvature="0"
           style="fill:#359946" />
        <path
           id="path4233"
           d="m 409.354,226.53 c -0.277,-1.943 0.044,-3.902 -0.289,-5.833 -1.829,-10.604 -14.968,-16.208 -23.786,-19.79 -3.56,-1.446 -7.52,-2.477 -11.37,-2.703 -5.047,-0.295 -11.717,-0.849 -16.163,2.083 -1.566,1.033 -2.45,2.509 -2.168,4.596 0.491,3.619 7.262,2.939 9.767,3.551 7.157,1.748 13.058,5.072 18.678,9.865 8.422,7.184 15.936,13.401 26.332,17.563 1.666,0.667 4.991,1.393 4.261,-1.401 -1.031,-3.936 -4.595,-3.264 -5.262,-7.931 z"
           inkscape:connector-curvature="0"
           style="fill:#359946" />
        <path
           id="path4235"
           d="m 526.982,282.734 c 0.352,6.433 1.142,12.889 3.198,19.021 0.987,2.942 2.672,5.6 3.723,8.518 2.473,6.87 1.067,14.3 2.423,21.351 1.335,6.941 5.996,12.545 8.022,19.24 1.876,6.197 0.695,13.385 3.337,19.332 1.507,3.391 4.328,5.977 6.224,9.145 2.399,4.01 5.111,14.822 10.22,16.139 3.615,0.932 3.283,-7.537 3.784,-9.68 0.519,-2.219 1.267,-4.58 1.886,-6.961 -4.898,-39.934 -20.21,-76.639 -43.142,-107.295 -0.017,0.349 0.138,7.751 0.325,11.19 z"
           inkscape:connector-curvature="0"
           style="fill:#359946" />
        <path
           id="path4237"
           d="m 476.633,224.922 c 0.477,2.124 1.054,4.656 -0.107,5.572 -2.11,1.665 -5.297,-1.39 -6.854,-2.635 -1.262,-1.009 -3.767,-3.708 -5.544,-2.832 -3.024,1.491 7.355,8.955 8.257,9.812 1.441,1.37 2.495,3.188 4.04,4.431 3.075,2.472 3.656,-0.448 5.861,-1.96 3.364,-2.308 6.416,1.998 8.007,4.324 2.456,3.59 4.026,7.599 6.747,11.036 3.116,3.936 6.173,7.852 8.763,12.208 2.714,4.562 5.375,9.192 8.843,13.237 2.25,2.625 6.559,4.244 7.52,3.403 1.647,-1.44 -0.844,-4.196 -1.373,-5.637 -1.469,-4 -4.137,-7.383 -6.099,-11.132 -1.967,-3.76 -4.444,-12.495 -4.486,-12.773 -10.307,-10.95 -21.691,-20.868 -33.99,-29.577 -0.015,0.604 0.188,1.518 0.415,2.523 z"
           inkscape:connector-curvature="0"
           style="fill:#359946" />
        <path
           id="path4239"
           d="m 419.521,197.116 c 4.331,3.715 9.838,5.95 15.165,8.081 3.333,1.333 4.333,3 8.333,5 4.945,2.473 9.567,5.014 14.826,6.81 1.517,0.518 5.319,2.592 6.841,1.523 0.674,-0.474 0.79,-1.88 0.596,-3.397 -15.574,-9.72 -32.418,-17.584 -50.229,-23.287 0.157,0.317 2.928,3.95 4.468,5.27 z"
           inkscape:connector-curvature="0"
           style="fill:#359946" />
        <path
           id="path4241"
           d="m 56.772,483.438 65.061,0 0,106.465 C 94.52,602.114 57.77,605.364 30.77,584.864 7.581,567.256 -5.479,522.768 2.21,481.368 c 7.689,-41.4 31.643,-63.137 56.78,-70.381 25.137,-7.246 53.529,0.877 61.512,6.357 l -10.055,47.908 c -11.178,-6.139 -20.737,-9.535 -32.974,-7.246 -29.954,5.607 -24.806,69.16 -17.152,82.807 6.198,11.051 11.09,10.201 11.09,10.201 l 0.148,-20.848 -14.787,-0.148 0,-46.58 z"
           inkscape:connector-curvature="0"
           style="fill:#cccccc" />
        <path
           id="path4243"
           d="m 225.77,420.364 c -22.75,-15.25 -65.25,-14.25 -89.5,-6.25 l 0.25,182 c 23.75,3.75 65.75,6.5 88.75,-10.25 24.713,-17.998 33.25,-48.25 33,-84.5 -0.257,-37.25 -9.75,-65.75 -32.5,-81 z m -21.5,83.25 c -0.5,44 -15,47.75 -15,47.75 l 0,-96 c 0,0 16,3.25 15,48.25 z"
           inkscape:connector-curvature="0"
           style="fill:#cccccc" />
        <polygon
           id="polygon4245"
           points="250.27,597.864 302.27,597.864 310.02,559.614 323.77,559.614 331.02,597.864 383.27,597.614 346.52,409.614 291.02,409.364 "
           style="fill:#cccccc" />
        <polygon
           id="polygon4247"
           points="442.52,409.364 389.52,409.364 389.52,597.614 485.52,597.614 485.52,550.114 442.52,550.114 "
           style="fill:#cccccc" />
        <g
           id="g4249">
          <path
             id="path4251"
             d="m 112.02,583.364 c -7.25,3 -22.75,6 -35,6 -19.25,0 -33.75,-5.5 -45,-16.75 -14.5,-14 -22.25,-39 -21.75,-68 0.75,-61.25 35.75,-86.75 71.5,-86.75 12.75,0 22.25,2.5 27.5,5 l -5.75,28.25 c -4.75,-2.25 -11,-3.75 -19.25,-3.75 -22.25,0 -40,15.25 -40,59.25 0,40.5 15.75,55 31,55 3,0 5.25,-0.25 6.5,-0.75 l 0,-40.75 -15,0 0,-26.75 45.25,0 0,90 z"
             inkscape:connector-curvature="0" />
          <path
             id="path4253"
             d="m 146.516,421.864 c 8.25,-2 20.25,-3.25 33.25,-3.25 21.25,0 36,5 46.75,15 14.5,13 22,35.25 22,68 0,34 -8.75,58.25 -23.5,71.25 -11.25,11 -28,16.25 -51.5,16.25 -10.25,0 -20.5,-1 -27,-1.75 l 0,-165.5 z m 32.75,140 c 1.5,0.5 4,0.5 5.75,0.5 15.75,0 29.5,-15.5 29.5,-62 0,-34.5 -9,-55.5 -28.75,-55.5 -2.25,0 -4.5,0 -6.5,0.75 l 0,116.25 z"
             inkscape:connector-curvature="0" />
          <path
             id="path4255"
             d="m 302.018,549.364 -7.5,38.5 -31.75,0 36.5,-168.5 39.25,0 32.75,168.5 -31.75,0 -7.25,-38.5 -30.25,0 z m 27.25,-25.5 -5.5,-35.25 c -1.75,-10.25 -4,-27 -5.5,-38.25 l -0.75,0 c -1.75,11.25 -4.25,28.75 -6,38.5 l -6.25,35 24,0 z"
             inkscape:connector-curvature="0" />
          <path
             id="path4257"
             d="m 399.766,419.364 32.75,0 0,140.75 43.25,0 0,27.75 -76,0 0,-168.5 z"
             inkscape:connector-curvature="0" />
        </g>
      </g>
      <g
         id="Layer_3">
        <path
           id="path4260"
           d="m 182.65,173.129 -2.333,6.184 186.476,68.695 c 0.404,-2.107 1.5,-4.08 2.162,-6.247 L 182.65,173.129 Z"
           inkscape:connector-curvature="0"
           style="fill:#ed1e3a" />
        <path
           id="path4262"
           d="m 180.528,179.824 -33.894,195.825 c 2.202,1.482 4.432,2.82 6.716,4.102 l 34.414,-198.825 -7.236,-1.102 z"
           inkscape:connector-curvature="0"
           style="fill:#ed1e3a" />
        <path
           id="path4264"
           d="m 244.787,288.181 c -66.626,41.209 -91.718,80.856 -96.071,88.376 1.7,1.018 3.417,1.962 5.158,2.872 10.307,-16.118 37.901,-52.546 94.204,-86.861 51.214,-31.214 96.002,-40.895 117.844,-43.891 0.354,-1.78 1.219,-3.4 2.071,-5.071 -14.297,1.719 -67.518,10.131 -123.206,44.575 z"
           inkscape:connector-curvature="0"
           style="fill:#ed1e3a" />
        <polygon
           id="polygon4266"
           points="183.091,103.005 168.93,51.652 249.699,0 263.86,51.352 "
           style="fill:#666667" />
        <path
           id="path4268"
           d="m 175.983,114.397 c 0,0 -12.522,3.461 -23.303,9.845 -10.781,6.384 -19.823,15.693 -19.823,15.693 L 98.65,82.435 c 0,0 6.653,-12.348 17.642,-18.854 10.565,-6.257 25.482,-6.683 25.482,-6.683 l 34.209,57.499 z"
           inkscape:connector-curvature="0" />
        <path
           id="path4270"
           d="m 152.493,136.525 c 19.72,-12.891 41.243,-20.098 49.737,-16.902 -5.473,-2.507 -27.143,-10.826 -50.188,2.244 -23.858,13.531 -26.183,34.557 -26.165,42.379 1.076,-6.775 11.099,-17.577 26.616,-27.721 z"
           inkscape:connector-curvature="0"
           style="fill:#666667" />
        <path
           id="path4272"
           d="m 205.773,125.483 c 0.139,-0.985 0.084,-1.885 -0.177,-2.681 -0.111,-0.342 -0.26,-0.665 -0.448,-0.967 -0.125,-0.201 -0.267,-0.394 -0.427,-0.578 -0.318,-0.367 -0.707,-0.697 -1.167,-0.988 -1.379,-0.871 -3.304,-1.323 -5.658,-1.393 -0.392,-0.012 -0.796,-0.012 -1.212,-0.003 -0.831,0.018 -1.708,0.08 -2.626,0.18 -0.459,0.051 -0.929,0.112 -1.408,0.182 -0.24,0.035 -0.481,0.073 -0.727,0.114 -0.488,0.081 -0.987,0.171 -1.494,0.271 -0.254,0.051 -0.51,0.102 -0.769,0.157 -0.516,0.109 -1.041,0.229 -1.574,0.358 -10.13,2.447 -23.218,8.3 -35.594,16.39 -12.051,7.876 -20.788,16.152 -24.596,22.63 -0.205,0.349 -0.397,0.694 -0.573,1.034 -0.177,0.339 -0.339,0.673 -0.486,1.001 -0.146,0.328 -0.278,0.65 -0.396,0.965 -0.41,1.104 -0.634,2.131 -0.66,3.066 -0.008,0.268 10e-4,0.527 0.026,0.78 0.147,1.511 0.884,2.74 2.263,3.611 7.357,4.647 30.218,-2.63 51.062,-16.256 0.651,-0.426 1.293,-0.853 1.924,-1.28 14.533,-9.838 23.808,-20.107 24.717,-26.593 z"
           inkscape:connector-curvature="0"
           style="fill:#989898" />
        <rect
           id="rect4274"
           height="2.4549999"
           width="49.895"
           transform="matrix(0.7021,0.7121,-0.7121,0.7021,164.3516,-70.1016)"
           y="160.14"
           x="141.008" />
        <rect
           id="rect4276"
           height="2.454"
           width="49.894001"
           transform="matrix(-0.2491,-0.9685,0.9685,-0.2491,75.9908,367.9678)"
           y="153.297"
           x="155.701" />
        <path
           id="path4278"
           d="m 182.736,172.197 -22.197,-40.319 c -0.891,0.273 -1.691,0.455 -2.214,1.07 l 22.261,40.433 2.15,-1.184 z"
           inkscape:connector-curvature="0" />
        <circle
           id="circle4280"
           r="6.6620002"
           cy="176.851"
           cx="184.314" />
        <polygon
           id="polygon4282"
           points="26.927,204.696 13.282,152.997 96.979,99.375 110.624,151.075 "
           style="fill:#666667" />
        <path
           id="path4284"
           d="m 97.479,128.201 2.529,3.574 23.545,-15.261 c -0.268,-0.568 -2.182,-3.293 -2.52,-3.79 l -23.554,15.477 z"
           inkscape:connector-curvature="0" />
        <path
           id="path4286"
           d="m 157.986,89.501 2.529,3.574 23.546,-15.261 c -0.269,-0.569 -2.182,-3.294 -2.521,-3.791 l -23.554,15.478 z"
           inkscape:connector-curvature="0" />
      </g>
    </g>
    <g
       id="g4404"
       transform="matrix(0.28187715,0,0,0.28187715,19.391097,58.583772)">
      <path
         d="m 184.61344,61.929363 c 0,-14.56215 -4.15226,-22.03817 -12.45678,-22.44755 -3.30427,-0.15595 -6.53055,0.37039 -9.66912,1.58878 -2.505,0.89673 -4.19124,1.78372 -5.07823,2.68045 l 0,34.75812 c 5.31216,3.33351 10.02976,4.88329 14.14303,4.63962 8.70415,-0.57508 13.0611,-7.64172 13.0611,-21.21942 z m 10.24419,0.60432 c 0,7.39804 -1.73498,13.53871 -5.22444,18.422 -3.88909,5.5266 -9.27923,8.37275 -16.17042,8.52871 -5.1952,0.1657 -10.54635,-1.46207 -16.05346,-4.87355 l 0,31.590317 -8.90884,-3.17755 0,-70.120567 c 1.46206,-1.79346 3.34325,-3.3335 5.62407,-4.63961 5.30242,-3.08983 11.74524,-4.67861 19.32848,-4.75658 l 0.12671,0.12671 c 6.93018,-0.08773 12.27159,2.75843 16.02422,8.5287 3.4992,5.29267 5.25368,12.07665 5.25368,20.37142 z"
         style="fill:#646464;fill-opacity:1"
         id="path46"
         inkscape:connector-curvature="0" />
      <path
         d="m 249.30487,83.265743 c 0,9.92254 -0.9942,16.794237 -2.9826,20.615097 -1.99816,3.82086 -5.79952,6.8717 -11.41385,9.14277 -4.55189,1.79346 -9.47417,2.76817 -14.75709,2.93387 l -1.47181,-5.61432 c 5.37064,-0.73103 9.15252,-1.46207 11.34561,-2.1931 4.31796,-1.46206 7.28108,-3.70389 8.90884,-6.706 1.30611,-2.446517 1.94942,-7.115367 1.94942,-14.026057 l 0,-2.3198 c -6.09193,2.76817 -12.47628,4.14251 -19.15303,4.14251 -4.38619,0 -8.25579,-1.37434 -11.58929,-4.14251 -3.74289,-3.01186 -5.61433,-6.83272 -5.61433,-11.46258 l 0,-37.07793 8.90884,-3.05084 0,37.3216 c 0,3.98656 1.28662,7.0569 3.85985,9.21101 2.57323,2.1541 5.90674,3.18729 9.99077,3.10932 4.08403,-0.08773 8.46047,-1.66676 13.10983,-4.75658 l 0,-43.54025 8.90884,0 0,48.41379 z"
         style="fill:#646464;fill-opacity:1"
         id="path48"
         inkscape:connector-curvature="0" />
      <path
         d="m 284.08249,88.997033 c -1.06243,0.08772 -2.03714,0.12671 -2.93387,0.12671 -5.03925,0 -8.96733,-1.19889 -11.77449,-3.60642 -2.79742,-2.40753 -4.20099,-5.73129 -4.20099,-9.97127 l 0,-35.08953 -6.10168,0 0,-5.60457 6.10168,0 0,-14.88381 8.89909,-3.16781 0,18.05162 10.01026,0 0,5.60457 -10.01026,0 0,34.84585 c 0,3.34325 0.89673,5.71179 2.6902,7.09588 1.54004,1.14041 3.98656,1.79347 7.32006,1.95917 l 0,4.63961 z"
         style="fill:#646464;fill-opacity:1"
         id="path50"
         inkscape:connector-curvature="0" />
      <path
         d="m 338.02288,88.266003 -8.90884,0 0,-34.38773 c 0,-3.49921 -0.81876,-6.51106 -2.44651,-9.02581 -1.88119,-2.84615 -4.49342,-4.26923 -7.84641,-4.26923 -4.08404,0 -9.19152,2.15411 -15.32242,6.46233 l 0,41.22044 -8.90885,0 0,-82.1972101 8.90885,-2.80716 0,37.4385701 c 5.6923,-4.14251 11.91093,-6.21864 18.66566,-6.21864 4.7176,0 8.53846,1.58877 11.46258,4.75658 2.93388,3.1678 4.39594,7.11537 4.39594,11.83296 l 0,37.1949 0,0 z"
         style="fill:#646464;fill-opacity:1"
         id="path52"
         inkscape:connector-curvature="0" />
      <path
         d="m 385.37424,60.525783 c 0,-5.59483 -1.06242,-10.21495 -3.17755,-13.87011 -2.51474,-4.45442 -6.42332,-6.80347 -11.70625,-7.04715 -9.76658,0.56534 -14.64012,7.56375 -14.64012,20.97574 0,6.15042 1.01369,11.28713 3.06057,15.41015 2.61223,5.25368 6.53056,7.84641 11.755,7.75869 9.80557,-0.07798 14.70835,-7.81717 14.70835,-23.22732 z m 9.75685,0.05848 c 0,7.96338 -2.03714,14.5914 -6.10168,19.88407 -4.47391,5.92623 -10.65357,8.89909 -18.53897,8.89909 -7.81716,0 -13.90909,-2.97286 -18.30503,-8.89909 -3.98656,-5.29267 -5.97497,-11.92069 -5.97497,-19.88407 0,-7.48576 2.15411,-13.78238 6.46232,-18.90935 4.5519,-5.43888 10.53661,-8.16806 17.93464,-8.16806 7.39805,0 13.42174,2.72918 18.06137,8.16806 4.3082,5.12697 6.46232,11.42359 6.46232,18.90935 z"
         style="fill:#646464;fill-opacity:1"
         id="path54"
         inkscape:connector-curvature="0" />
      <path
         d="m 446.20583,88.266003 -8.90884,0 0,-36.33715 c 0,-3.98656 -1.19889,-7.09588 -3.59667,-9.33772 -2.39779,-2.23208 -5.59483,-3.31401 -9.58139,-3.22628 -4.23023,0.07798 -8.25579,1.46206 -12.07664,4.14251 l 0,44.75864 -8.90884,0 0,-45.86006 c 5.12697,-3.73313 9.84456,-6.16991 14.15276,-7.31032 4.06455,-1.06243 7.65148,-1.58877 10.74131,-1.58877 2.11512,0 4.10352,0.20469 5.97496,0.61406 3.49921,0.80901 6.34535,2.31006 8.53845,4.51291 2.44651,2.43677 3.6649,5.3609 3.6649,8.78212 l 0,40.85006 z"
         style="fill:#646464;fill-opacity:1"
         id="path56"
         inkscape:connector-curvature="0" />
      <path
         id="path1948"
         d="m 60.510156,6.3979729 c -4.583653,0.021298 -8.960939,0.4122177 -12.8125,1.09375 C 36.35144,9.4962267 34.291407,13.691825 34.291406,21.429223 l 0,10.21875 26.8125,0 0,3.40625 -26.8125,0 -10.0625,0 c -7.792459,0 -14.6157592,4.683717 -16.7500002,13.59375 -2.46182,10.212966 -2.5710151,16.586023 0,27.25 1.9059283,7.937852 6.4575432,13.593748 14.2500002,13.59375 l 9.21875,0 0,-12.25 c 0,-8.849902 7.657144,-16.656248 16.75,-16.65625 l 26.78125,0 c 7.454951,0 13.406253,-6.138164 13.40625,-13.625 l 0,-25.53125 c 0,-7.266339 -6.12998,-12.7247775 -13.40625,-13.9375001 -4.605987,-0.7667253 -9.385097,-1.1150483 -13.96875,-1.09375 z m -14.5,8.2187501 c 2.769547,0 5.03125,2.298646 5.03125,5.125 -2e-6,2.816336 -2.261703,5.09375 -5.03125,5.09375 -2.779476,-1e-6 -5.03125,-2.277415 -5.03125,-5.09375 -1e-6,-2.826353 2.251774,-5.125 5.03125,-5.125 z"
         style="fill:url(#linearGradient1478);fill-opacity:1"
         inkscape:connector-curvature="0" />
      <path
         id="path1950"
         d="m 91.228906,35.054223 0,11.90625 c 0,9.230755 -7.825895,16.999999 -16.75,17 l -26.78125,0 c -7.335833,0 -13.406249,6.278483 -13.40625,13.625 l 0,25.531247 c 0,7.26634 6.318588,11.54032 13.40625,13.625 8.487331,2.49561 16.626237,2.94663 26.78125,0 6.750155,-1.95439 13.406253,-5.88761 13.40625,-13.625 l 0,-10.218747 -26.78125,0 0,-3.40625 26.78125,0 13.406254,0 c 7.79246,0 10.69625,-5.435408 13.40624,-13.59375 2.79933,-8.398886 2.68022,-16.475776 0,-27.25 -1.92578,-7.757441 -5.60387,-13.59375 -13.40624,-13.59375 l -10.062504,0 z m -15.0625,64.65625 c 2.779478,3e-6 5.03125,2.277417 5.03125,5.093747 -2e-6,2.82635 -2.251775,5.125 -5.03125,5.125 -2.76955,0 -5.03125,-2.29865 -5.03125,-5.125 2e-6,-2.81633 2.261697,-5.093747 5.03125,-5.093747 z"
         style="fill:url(#linearGradient1475);fill-opacity:1"
         inkscape:connector-curvature="0" />
      <path
         sodipodi:nodetypes="ccccccccccccccccccccccc"
         id="text3004"
         style="font-style:normal;font-weight:normal;font-size:15.16445827px;line-height:125%;font-family:'Bitstream Vera Sans';fill:#646464;fill-opacity:1;stroke:none;stroke-width:1px;stroke-linecap:butt;stroke-linejoin:miter;stroke-opacity:1"
         d="m 463.5544,26.909383 1.56195,0 0,-9.79624 3.70013,0 0,-1.16766 -8.96221,0 0,1.16766 3.70013,0 0,9.79624 m 6.64702,0 1.33447,0 0,-8.94703 2.89641,8.945906 1.48569,0 3.01816,-8.915576 0,8.9167 1.45579,0 0,-10.9639 -1.92589,0 -3.29831,9.392857 -2.81297,-9.392857 -2.15335,0 0,10.9639"
         inkscape:connector-curvature="0" />
      <ellipse
         transform="matrix(0.73406,0,0,0.809524,16.24958,27.00935)"
         id="path1894"
         style="opacity:0.44382025;fill:url(#radialGradient1480);fill-opacity:1;fill-rule:nonzero;stroke:none;stroke-width:20;stroke-miterlimit:4;stroke-dasharray:none;stroke-opacity:1"
         cx="61.518883"
         cy="132.28575"
         rx="48.948284"
         ry="8.6066771" />
    </g>
    <g
       id="g4420"
       transform="matrix(0.33932496,0,0,0.33932496,11.515175,81.52853)">
      <path
         id="path4422"
         d="m 421.64,272.27 c 0,3.619 -2.973,6.849 -6.85,6.849 -2.973,0 -5.557,0.776 -7.754,2.456 -2.455,1.552 -4.394,3.748 -5.944,6.203 -3.102,4.136 -4.651,9.046 -5.298,10.854 l 0,24.554 c 0,3.748 -3.23,6.85 -7.107,6.85 -3.748,0 -6.849,-3.102 -6.849,-6.85 l 0,-50.916 c 0,-3.748 3.101,-6.72 6.849,-6.72 3.877,0 7.107,2.973 7.107,6.72 l 0,0.905 c 0.775,-0.905 1.809,-1.938 2.714,-2.585 4.265,-2.842 9.821,-5.169 16.282,-5.04 3.877,0 6.85,2.973 6.85,6.72 z"
         inkscape:connector-curvature="0"
         style="fill:#636466" />
      <path
         id="path4424"
         d="m 417.85,297.73 c 0.13,-17.575 13.828,-32.307 31.531,-32.307 16.8,0 30.11,12.535 31.145,29.98 l 0,0.646 c 0,0.259 0,0.904 -0.129,1.163 -0.389,3.102 -3.102,5.17 -6.721,5.17 l -41.094,0 c 0.646,2.973 2.067,6.332 4.394,8.529 2.714,3.102 7.883,5.426 12.405,5.814 4.652,0.387 10.209,-0.775 13.44,-3.23 2.713,-2.844 8.012,-2.455 9.692,-0.389 1.68,1.811 2.972,5.688 0,8.4 -6.333,5.814 -13.957,8.529 -23.133,8.529 -17.702,-0.127 -31.4,-14.73 -31.53,-32.305 z m 14.086,-6.332 36.571,0 c -1.292,-5.169 -7.883,-12.793 -19.126,-13.698 -10.983,0.516 -16.411,8.4 -17.445,13.698 z"
         inkscape:connector-curvature="0"
         style="fill:#636466" />
      <path
         id="path4426"
         d="m 546.36,323.06 c 0,3.748 -3.102,6.979 -6.979,6.979 -3.489,0 -6.202,-2.455 -6.849,-5.557 -4.91,3.359 -11.113,5.557 -17.575,5.557 -17.445,0 -31.402,-14.732 -31.402,-32.178 0,-17.705 13.957,-32.437 31.402,-32.437 6.333,0 12.535,2.067 17.316,5.427 l 0,-24.294 c 0,-3.748 3.102,-6.979 7.107,-6.979 3.877,0 6.979,3.231 6.979,6.979 l 0,51.174 0,0.13 0,25.199 z m -31.402,-43.55 c -4.652,0 -8.917,1.938 -12.146,5.298 -3.231,3.231 -5.17,7.882 -5.17,13.052 0,4.91 1.938,9.562 5.17,12.793 3.229,3.361 7.494,5.299 12.146,5.299 4.781,0 8.917,-1.938 12.147,-5.299 3.23,-3.23 5.169,-7.883 5.169,-12.793 0,-5.17 -1.938,-9.821 -5.169,-13.052 -3.23,-3.36 -7.366,-5.298 -12.147,-5.298 z"
         inkscape:connector-curvature="0"
         style="fill:#636466" />
      <path
         id="path4428"
         d="m 570.95,249.27 c 0,3.877 -2.972,7.107 -6.979,7.107 -3.877,0 -6.978,-3.23 -6.978,-7.107 l 0,-2.714 c 0,-3.877 3.101,-6.979 6.978,-6.979 4.007,0 6.979,3.102 6.979,6.979 l 0,2.714 z m 0,23.39 0,50.399 c 0,3.877 -2.972,6.979 -6.979,6.979 -3.877,0 -6.978,-3.102 -6.978,-6.979 l 0,-50.399 c 0,-4.135 3.101,-7.108 6.978,-7.108 4.008,0 6.979,2.973 6.979,7.108 z"
         inkscape:connector-curvature="0"
         style="fill:#636466" />
      <path
         id="path4430"
         d="m 579.83,311.55 c 2.326,-3.1 6.85,-3.488 9.692,-1.033 3.36,2.844 9.176,5.814 14.215,5.686 3.489,0 6.72,-1.162 8.788,-2.455 1.809,-1.551 2.325,-2.842 2.325,-3.877 0,-0.646 -0.129,-0.904 -0.387,-1.293 -0.13,-0.387 -0.646,-0.904 -1.681,-1.549 -1.809,-1.293 -5.686,-2.715 -10.338,-3.619 l -0.129,0 c -4.007,-0.775 -7.884,-1.809 -11.243,-3.361 -3.489,-1.679 -6.591,-4.005 -8.917,-7.494 -1.421,-2.326 -2.196,-5.169 -2.196,-8.141 0,-5.945 3.36,-10.985 7.624,-14.216 4.523,-3.101 9.951,-4.781 15.896,-4.781 8.916,0 15.248,4.265 19.384,7.107 3.102,2.068 4.006,6.333 2.067,9.562 -2.067,3.102 -6.332,4.007 -9.562,1.81 -4.135,-2.713 -7.754,-4.782 -11.889,-4.782 -3.231,0 -6.074,1.034 -7.754,2.326 -1.68,1.164 -2.067,2.327 -2.067,2.973 0,0.516 0,0.646 0.258,1.033 0.13,0.258 0.517,0.775 1.422,1.292 1.681,1.163 5.04,2.326 9.434,3.102 l 0.129,0.13 0.13,0 c 4.265,0.774 8.271,1.938 12.018,3.747 3.489,1.551 6.979,4.006 9.176,7.624 1.551,2.584 2.455,5.557 2.455,8.529 0,6.332 -3.489,11.631 -8.142,14.99 -4.652,3.23 -10.468,5.17 -16.8,5.17 -10.079,-0.129 -17.833,-4.781 -23.002,-8.916 -2.844,-2.326 -3.231,-6.721 -0.906,-9.564 z"
         inkscape:connector-curvature="0"
         style="fill:#636466" />
      <path
         id="path4432"
         d="m 334.77,339.54 c -9.078,4.732 -56.106,24.068 -66.118,29.287 -10.012,5.221 -15.574,5.17 -23.483,1.389 -7.909,-3.781 -57.955,-23.996 -66.97,-28.305 -4.506,-2.154 -6.875,-3.971 -6.875,-5.688 l 0,-17.195 c 0,0 65.153,-14.184 75.672,-17.957 10.518,-3.774 14.167,-3.91 23.118,-0.631 8.952,3.279 62.474,12.936 71.321,16.176 0,0 -0.004,15.357 -0.004,16.951 0.001,1.7 -2.04,3.565 -6.661,5.973 z"
         inkscape:connector-curvature="0"
         style="fill:#a41e11" />
      <path
         id="path4434"
         d="m 334.77,322.34 c -9.078,4.73 -56.106,24.068 -66.118,29.287 -10.012,5.221 -15.574,5.17 -23.483,1.389 -7.91,-3.779 -57.955,-23.998 -66.97,-28.305 -9.015,-4.309 -9.204,-7.275 -0.348,-10.742 8.855,-3.469 58.626,-22.996 69.146,-26.77 10.518,-3.772 14.167,-3.91 23.118,-0.63 8.952,3.279 55.699,21.886 64.545,25.126 8.848,3.243 9.188,5.913 0.11,10.645 z"
         inkscape:connector-curvature="0"
         style="fill:#d82c20" />
      <path
         id="path4436"
         d="m 334.77,311.5 c -9.078,4.732 -56.106,24.068 -66.118,29.289 -10.012,5.219 -15.574,5.168 -23.483,1.387 -7.91,-3.779 -57.955,-23.996 -66.97,-28.305 -4.506,-2.154 -6.875,-3.969 -6.875,-5.686 l 0,-17.197 c 0,0 65.153,-14.183 75.672,-17.957 10.518,-3.773 14.167,-3.91 23.118,-0.631 8.952,3.279 62.474,12.934 71.321,16.175 0,0 -0.004,15.357 -0.004,16.953 0.001,1.699 -2.04,3.564 -6.661,5.972 z"
         inkscape:connector-curvature="0"
         style="fill:#a41e11" />
      <path
         id="path4438"
         d="m 334.77,294.3 c -9.078,4.732 -56.106,24.068 -66.118,29.289 -10.012,5.219 -15.574,5.168 -23.483,1.387 -7.91,-3.779 -57.955,-23.997 -66.97,-28.305 -9.015,-4.308 -9.204,-7.274 -0.348,-10.743 8.855,-3.467 58.626,-22.995 69.146,-26.768 10.518,-3.773 14.167,-3.91 23.118,-0.631 8.952,3.279 55.699,21.885 64.545,25.126 8.848,3.242 9.188,5.913 0.11,10.645 z"
         inkscape:connector-curvature="0"
         style="fill:#d82c20" />
      <path
         id="path4440"
         d="m 334.77,282.42 c -9.078,4.732 -56.106,24.069 -66.118,29.29 -10.012,5.219 -15.574,5.168 -23.483,1.387 -7.91,-3.779 -57.955,-23.997 -66.97,-28.305 -4.506,-2.154 -6.875,-3.97 -6.875,-5.686 l 0,-17.197 c 0,0 65.153,-14.183 75.672,-17.956 10.518,-3.774 14.167,-3.91 23.118,-0.631 8.952,3.279 62.474,12.934 71.321,16.175 0,0 -0.004,15.357 -0.004,16.952 0.001,1.698 -2.04,3.563 -6.661,5.971 z"
         inkscape:connector-curvature="0"
         style="fill:#a41e11" />
      <path
         id="path4442"
         d="m 334.77,265.22 c -9.078,4.732 -56.106,24.069 -66.118,29.289 -10.012,5.219 -15.574,5.168 -23.483,1.388 -7.909,-3.78 -57.955,-23.997 -66.97,-28.305 -9.015,-4.308 -9.204,-7.275 -0.348,-10.743 8.855,-3.468 58.626,-22.994 69.146,-26.768 10.518,-3.774 14.167,-3.91 23.118,-0.63 8.952,3.279 55.699,21.885 64.545,25.126 8.848,3.24 9.188,5.912 0.11,10.643 z"
         inkscape:connector-curvature="0"
         style="fill:#d82c20" />
      <polygon
         id="polygon4444"
         points="278.67,248.66 263.93,250.19 260.63,258.13 255.3,249.27 238.28,247.74 250.98,243.16 247.17,236.13 259.06,240.78 270.27,237.11 267.24,244.38 "
         style="fill:#ffffff" />
      <polygon
         id="polygon4446"
         points="232.24,275.77 271.66,269.72 259.75,287.18 "
         style="fill:#ffffff" />
      <ellipse
         id="ellipse4448"
         cy="261.23999"
         ry="8.1669998"
         rx="21.069"
         cx="221.61"
         style="fill:#ffffff" />
      <polygon
         id="polygon4450"
         points="319.42,260.05 296.11,269.26 296.09,250.83 "
         style="fill:#7a0c00" />
      <polygon
         id="polygon4452"
         points="296.11,269.26 293.58,270.25 270.28,261.04 296.09,250.83 "
         style="fill:#ad2115" />
    </g>
  </g>
</svg>
